<?xml version="1.0" standalone="no"?>
<!DOCTYPE svg PUBLIC "-//W3C//DTD SVG 20010904//EN"
 "http://www.w3.org/TR/2001/REC-SVG-20010904/DTD/svg10.dtd">
<svg version="1.0" xmlns="http://www.w3.org/2000/svg"
 width="16.000000pt" height="16.000000pt" viewBox="0 0 16.000000 16.000000"
 preserveAspectRatio="xMidYMid meet">

<g transform="translate(0.000000,16.000000) scale(0.100000,-0.100000)"
fill="#000000" stroke="none">
<path d="M16 134 c-10 -27 -7 -99 6 -112 16 -16 100 -16 116 0 16 16 16 100 0
116 -19 19 -114 16 -122 -4z m35 -42 c0 -13 3 -12 11 6 6 12 14 22 18 22 4 0
12 -10 18 -22 l11 -23 0 24 c1 34 18 15 23 -24 2 -25 -1 -31 -19 -33 -16 -2
-23 2 -23 12 0 21 -10 20 -26 -1 -11 -16 -14 -15 -27 17 -15 35 -13 55 4 45 5
-4 9 -14 10 -23z"/>
</g>
</svg>
